<?xml version="1.0" standalone="no"?>
<!DOCTYPE svg PUBLIC "-//W3C//DTD SVG 20010904//EN"
 "http://www.w3.org/TR/2001/REC-SVG-20010904/DTD/svg10.dtd">
<svg version="1.0" xmlns="http://www.w3.org/2000/svg"
 width="108.000000pt" height="104.000000pt" viewBox="0 0 108.000000 104.000000"
 preserveAspectRatio="xMidYMid meet">

<g transform="translate(0.000000,104.000000) scale(0.100000,-0.100000)"
fill="#000000" stroke="none">
<path d="M95 978 c-3 -7 -4 -218 -3 -468 3 -397 5 -455 18 -455 13 0 15 58 15
464 0 363 -3 465 -12 468 -7 3 -15 -1 -18 -9z"/>
<path d="M195 978 c-3 -7 -4 -218 -3 -468 3 -397 5 -455 18 -455 13 0 15 58
15 464 0 363 -3 465 -12 468 -7 3 -15 -1 -18 -9z"/>
<path d="M292 982 c-9 -7 -12 -57 -10 -218 l3 -209 265 0 265 0 0 215 c0 184
-2 215 -15 215 -13 0 -15 -30 -18 -197 l-2 -198 -225 0 -225 0 0 200 c0 204
-2 214 -38 192z"/>
<path d="M385 978 c-3 -8 -4 -86 -3 -173 l3 -160 168 -3 167 -2 -2 172 c-3
154 -5 173 -20 176 -16 3 -18 -11 -20 -150 l-3 -153 -122 -3 c-145 -3 -132
-20 -136 172 -1 93 -6 131 -14 134 -7 2 -15 -3 -18 -10z"/>
<path d="M487 983 c-4 -7 -2 -227 1 -245 1 -5 31 -8 67 -8 l65 0 0 131 c0 119
-2 130 -17 127 -16 -3 -18 -17 -21 -103 -1 -55 -7 -104 -11 -108 -5 -5 -18 -6
-30 -2 -20 6 -21 13 -21 111 0 84 -3 104 -14 104 -8 0 -17 -3 -19 -7z"/>
<path d="M885 984 c-7 -3 -9 -166 -7 -470 2 -435 4 -465 20 -462 16 3 17 35
17 467 0 301 -4 465 -10 467 -5 1 -14 0 -20 -2z"/>
<path d="M975 978 c-3 -7 -4 -218 -3 -468 3 -447 3 -455 23 -455 20 0 20 8 23
459 2 463 1 475 -31 476 -4 0 -10 -6 -12 -12z"/>
<path d="M282 278 c3 -223 3 -223 26 -226 l22 -3 0 200 0 201 225 0 225 0 0
-110 c0 -81 -3 -110 -12 -111 -7 -1 -34 -1 -60 1 -26 1 -66 -1 -88 -5 l-41 -7
3 -81 c3 -73 5 -82 22 -82 16 0 19 8 20 60 1 58 2 60 29 63 l27 3 0 -65 c0
-59 2 -66 20 -66 16 0 19 8 22 63 3 59 4 62 31 65 l27 3 0 -66 c0 -58 2 -66
18 -63 15 3 17 23 20 226 l2 222 -270 0 -270 0 2 -222z"/>
<path d="M385 397 c-3 -7 -4 -87 -3 -177 3 -147 5 -165 20 -168 16 -3 18 11
20 150 l3 153 128 3 128 3 -3 -23 c-3 -22 -8 -23 -101 -26 l-98 -3 3 -127 c3
-111 5 -127 21 -130 15 -3 17 7 17 101 0 72 4 108 13 115 6 5 48 10 92 10 44
1 84 1 88 2 4 0 7 28 5 63 l-3 62 -163 3 c-127 2 -164 0 -167 -11z"/>
</g>
</svg>
